<svg width="163" height="36" viewBox="0 0 163 36" fill="none" xmlns="http://www.w3.org/2000/svg">
<g clip-path="url(#clip0_11_13)">
<g filter="url(#filter0_d_11_13)">
<circle cx="15" cy="18" r="15" fill="#212023"/>
<circle cx="15" cy="18" r="14.5" stroke="#8DB9FF"/>
</g>
<g filter="url(#filter1_d_11_13)">
<path d="M15 26V10" stroke="white" stroke-width="3"/>
</g>
<g filter="url(#filter2_d_11_13)">
<line x1="7" y1="17.5" x2="23" y2="17.5" stroke="white" stroke-width="3"/>
</g>
<path d="M39.358 25.4659V21.9062H40.0142C40.2396 21.7008 40.4517 21.4107 40.6506 21.0362C40.8527 20.6584 41.0234 20.1546 41.1626 19.5249C41.3052 18.8918 41.3996 18.0881 41.446 17.1136L41.6648 12.8182H47.7102V21.9062H48.8835V25.446H47.7102V23H40.5312V25.4659H39.358ZM41.4858 21.9062H46.5369V13.9119H42.7784L42.6193 17.1136C42.5795 17.8561 42.5099 18.5289 42.4105 19.1321C42.3111 19.732 42.1835 20.264 42.0277 20.728C41.8719 21.1887 41.6913 21.5814 41.4858 21.9062ZM53.6898 23.1591C53.0004 23.1591 52.3955 22.995 51.8752 22.6669C51.3581 22.3388 50.9538 21.8797 50.6621 21.2898C50.3738 20.6998 50.2296 20.0104 50.2296 19.2216C50.2296 18.4261 50.3738 17.7318 50.6621 17.1385C50.9538 16.5452 51.3581 16.0845 51.8752 15.7564C52.3955 15.4283 53.0004 15.2642 53.6898 15.2642C54.3792 15.2642 54.9824 15.4283 55.4995 15.7564C56.0198 16.0845 56.4242 16.5452 56.7125 17.1385C57.0042 17.7318 57.15 18.4261 57.15 19.2216C57.15 20.0104 57.0042 20.6998 56.7125 21.2898C56.4242 21.8797 56.0198 22.3388 55.4995 22.6669C54.9824 22.995 54.3792 23.1591 53.6898 23.1591ZM53.6898 22.1051C54.2135 22.1051 54.6444 21.9709 54.9824 21.7024C55.3205 21.4339 55.5707 21.081 55.7331 20.6435C55.8955 20.206 55.9767 19.732 55.9767 19.2216C55.9767 18.7112 55.8955 18.2356 55.7331 17.7947C55.5707 17.3539 55.3205 16.9976 54.9824 16.7259C54.6444 16.4541 54.2135 16.3182 53.6898 16.3182C53.1661 16.3182 52.7353 16.4541 52.3972 16.7259C52.0591 16.9976 51.8089 17.3539 51.6465 17.7947C51.4841 18.2356 51.4029 18.7112 51.4029 19.2216C51.4029 19.732 51.4841 20.206 51.6465 20.6435C51.8089 21.081 52.0591 21.4339 52.3972 21.7024C52.7353 21.9709 53.1661 22.1051 53.6898 22.1051ZM64.6087 12.5L65.2053 13.2159C64.9732 13.4413 64.7048 13.5987 64.3999 13.6882C64.0949 13.7777 63.7502 13.8324 63.3658 13.8523C62.9813 13.8722 62.5537 13.892 62.0831 13.9119C61.5528 13.9318 61.1136 14.0611 60.7656 14.2997C60.4176 14.5384 60.1491 14.883 59.9602 15.3338C59.7713 15.7846 59.6503 16.3381 59.5973 16.9943H59.6967C59.9553 16.517 60.3132 16.1657 60.7706 15.9403C61.228 15.715 61.7185 15.6023 62.2422 15.6023C62.8388 15.6023 63.3757 15.7415 63.853 16.0199C64.3303 16.2983 64.7081 16.7109 64.9865 17.2578C65.2649 17.8047 65.4041 18.4792 65.4041 19.2812C65.4041 20.08 65.2616 20.7694 64.9766 21.3494C64.6948 21.9295 64.2988 22.3769 63.7884 22.6918C63.2813 23.0033 62.6863 23.1591 62.0036 23.1591C61.3208 23.1591 60.7225 22.9983 60.2088 22.6768C59.6951 22.352 59.2957 21.8714 59.0107 21.2351C58.7256 20.5954 58.5831 19.8049 58.5831 18.8636V18.0483C58.5831 16.348 58.8714 15.0587 59.4482 14.1804C60.0282 13.3021 60.8999 12.848 62.0632 12.8182C62.4742 12.8049 62.8404 12.8016 63.1619 12.8082C63.4834 12.8149 63.7635 12.8 64.0021 12.7635C64.2408 12.727 64.4429 12.6392 64.6087 12.5ZM62.0036 22.1051C62.4643 22.1051 62.8603 21.9891 63.1918 21.7571C63.5265 21.5251 63.7834 21.1986 63.9624 20.7777C64.1413 20.3535 64.2308 19.8546 64.2308 19.2812C64.2308 18.7244 64.1397 18.2505 63.9574 17.8594C63.7784 17.4683 63.5215 17.17 63.1868 16.9645C62.852 16.759 62.451 16.6562 61.9837 16.6562C61.6423 16.6562 61.3357 16.7143 61.0639 16.8303C60.7921 16.9463 60.5601 17.117 60.3679 17.3423C60.1757 17.5677 60.0265 17.8428 59.9205 18.1676C59.8177 18.4924 59.763 18.8636 59.7564 19.2812C59.7564 20.1364 59.9569 20.8208 60.358 21.3345C60.759 21.8482 61.3075 22.1051 62.0036 22.1051ZM69.446 23.179C68.9621 23.179 68.523 23.0878 68.1286 22.9055C67.7341 22.7199 67.4209 22.4531 67.1889 22.1051C66.9569 21.7538 66.8409 21.3295 66.8409 20.8324C66.8409 20.3949 66.9271 20.0402 67.0994 19.7685C67.2718 19.4934 67.5021 19.2779 67.7905 19.1222C68.0788 18.9664 68.397 18.8504 68.745 18.7741C69.0964 18.6946 69.4493 18.6316 69.804 18.5852C70.268 18.5256 70.6442 18.4808 70.9325 18.451C71.2242 18.4179 71.4363 18.3632 71.5689 18.2869C71.7048 18.2107 71.7727 18.0781 71.7727 17.8892V17.8494C71.7727 17.3589 71.6385 16.9777 71.37 16.706C71.1049 16.4342 70.7022 16.2983 70.1619 16.2983C69.6018 16.2983 69.1626 16.4209 68.8445 16.6662C68.5263 16.9115 68.3026 17.1733 68.1733 17.4517L67.0597 17.054C67.2585 16.59 67.5237 16.2287 67.8551 15.9702C68.1899 15.7083 68.5545 15.526 68.9489 15.4233C69.3466 15.3172 69.7377 15.2642 70.1222 15.2642C70.3674 15.2642 70.6491 15.294 70.9673 15.3537C71.2888 15.41 71.5987 15.5277 71.897 15.7067C72.1986 15.8857 72.4489 16.1558 72.6477 16.517C72.8466 16.8783 72.946 17.3622 72.946 17.9688V23H71.7727V21.9659H71.7131C71.6335 22.1316 71.5009 22.3089 71.3153 22.4979C71.1297 22.6868 70.8828 22.8475 70.5746 22.9801C70.2663 23.1127 69.8902 23.179 69.446 23.179ZM69.625 22.125C70.089 22.125 70.4801 22.0339 70.7983 21.8516C71.1198 21.6693 71.3617 21.4339 71.5241 21.1456C71.6899 20.8572 71.7727 20.554 71.7727 20.2358V19.1619C71.723 19.2216 71.6136 19.2763 71.4446 19.326C71.2789 19.3724 71.0866 19.4138 70.8679 19.4503C70.6525 19.4834 70.442 19.5133 70.2365 19.5398C70.0343 19.563 69.8703 19.5829 69.7443 19.5994C69.4394 19.6392 69.1544 19.7038 68.8892 19.7933C68.6274 19.8795 68.4152 20.0104 68.2528 20.1861C68.0938 20.3584 68.0142 20.5937 68.0142 20.892C68.0142 21.2997 68.165 21.608 68.4666 21.8168C68.7715 22.0223 69.1577 22.125 69.625 22.125ZM75.0875 23V15.3636H78.2097C79.0317 15.3636 79.6846 15.5492 80.1685 15.9205C80.6524 16.2917 80.8944 16.7822 80.8944 17.392C80.8944 17.8561 80.7568 18.2157 80.4817 18.4709C80.2066 18.7228 79.8536 18.8935 79.4228 18.983C79.7045 19.0227 79.9779 19.1222 80.2431 19.2812C80.5115 19.4403 80.7336 19.6591 80.9093 19.9375C81.0849 20.2126 81.1728 20.5507 81.1728 20.9517C81.1728 21.3428 81.0733 21.6925 80.8745 22.0007C80.6756 22.3089 80.3906 22.5526 80.0194 22.7315C79.6481 22.9105 79.204 23 78.687 23H75.0875ZM76.2012 21.9261H78.687C79.0913 21.9261 79.4078 21.83 79.6365 21.6378C79.8652 21.4455 79.9796 21.1837 79.9796 20.8523C79.9796 20.4579 79.8652 20.148 79.6365 19.9226C79.4078 19.6939 79.0913 19.5795 78.687 19.5795H76.2012V21.9261ZM76.2012 18.5653H78.2097C78.5246 18.5653 78.7947 18.5223 79.0201 18.4361C79.2454 18.3466 79.4178 18.2206 79.5371 18.0582C79.6597 17.8925 79.7211 17.697 79.7211 17.4716C79.7211 17.1501 79.5868 16.8982 79.3184 16.7159C79.0499 16.5303 78.6803 16.4375 78.2097 16.4375H76.2012V18.5653ZM84.1222 21.2699L87.8011 15.3636H89.1534V23H87.9801V17.0938L84.321 23H82.9489V15.3636H84.1222V21.2699ZM90.2633 16.4574V15.3636H96.4679V16.4574H93.9622V23H92.7889V16.4574H90.2633ZM99.1935 18.1278H101.381C102.276 18.1278 102.96 18.3549 103.434 18.8089C103.908 19.263 104.145 19.8381 104.145 20.5341C104.145 20.9915 104.039 21.4074 103.827 21.782C103.615 22.1532 103.303 22.4498 102.892 22.6719C102.481 22.8906 101.978 23 101.381 23H98.1793V15.3636H99.3526V21.9062H101.381C101.845 21.9062 102.226 21.7836 102.525 21.5384C102.823 21.2931 102.972 20.9782 102.972 20.5938C102.972 20.1894 102.823 19.8596 102.525 19.6044C102.226 19.3492 101.845 19.2216 101.381 19.2216H99.1935V18.1278ZM109.392 21.0511H110.644C110.671 21.3958 110.827 21.6577 111.112 21.8366C111.4 22.0156 111.775 22.1051 112.235 22.1051C112.706 22.1051 113.109 22.009 113.443 21.8168C113.778 21.6212 113.945 21.3063 113.945 20.8722C113.945 20.617 113.883 20.3949 113.757 20.206C113.631 20.0137 113.453 19.8646 113.225 19.7585C112.996 19.6525 112.726 19.5994 112.414 19.5994H111.102V18.5455H112.414C112.882 18.5455 113.226 18.4394 113.448 18.2273C113.674 18.0152 113.786 17.75 113.786 17.4318C113.786 17.0904 113.665 16.817 113.423 16.6115C113.182 16.4027 112.838 16.2983 112.394 16.2983C111.947 16.2983 111.574 16.3994 111.276 16.6016C110.977 16.8004 110.82 17.0573 110.803 17.3722H109.57C109.584 16.9612 109.71 16.5982 109.948 16.2834C110.187 15.9652 110.512 15.7166 110.923 15.5376C111.334 15.3554 111.804 15.2642 112.335 15.2642C112.872 15.2642 113.337 15.3587 113.732 15.5476C114.129 15.7332 114.436 15.9867 114.651 16.3082C114.87 16.6264 114.98 16.9877 114.98 17.392C114.98 17.8229 114.859 18.1709 114.617 18.4361C114.375 18.7012 114.071 18.8902 113.707 19.0028V19.0824C113.995 19.1023 114.245 19.1951 114.458 19.3608C114.673 19.5232 114.84 19.737 114.96 20.0021C115.079 20.264 115.139 20.554 115.139 20.8722C115.139 21.3362 115.014 21.7405 114.766 22.0852C114.517 22.4266 114.176 22.6918 113.742 22.8807C113.307 23.0663 112.812 23.1591 112.255 23.1591C111.715 23.1591 111.231 23.0713 110.803 22.8956C110.376 22.7166 110.036 22.4697 109.784 22.1548C109.536 21.8366 109.405 21.4688 109.392 21.0511ZM119.034 23.179C118.55 23.179 118.111 23.0878 117.716 22.9055C117.322 22.7199 117.009 22.4531 116.777 22.1051C116.545 21.7538 116.429 21.3295 116.429 20.8324C116.429 20.3949 116.515 20.0402 116.687 19.7685C116.86 19.4934 117.09 19.2779 117.378 19.1222C117.667 18.9664 117.985 18.8504 118.333 18.7741C118.684 18.6946 119.037 18.6316 119.392 18.5852C119.856 18.5256 120.232 18.4808 120.52 18.451C120.812 18.4179 121.024 18.3632 121.157 18.2869C121.293 18.2107 121.361 18.0781 121.361 17.8892V17.8494C121.361 17.3589 121.226 16.9777 120.958 16.706C120.693 16.4342 120.29 16.2983 119.75 16.2983C119.19 16.2983 118.751 16.4209 118.432 16.6662C118.114 16.9115 117.89 17.1733 117.761 17.4517L116.648 17.054C116.846 16.59 117.112 16.2287 117.443 15.9702C117.778 15.7083 118.142 15.526 118.537 15.4233C118.934 15.3172 119.326 15.2642 119.71 15.2642C119.955 15.2642 120.237 15.294 120.555 15.3537C120.877 15.41 121.187 15.5277 121.485 15.7067C121.787 15.8857 122.037 16.1558 122.236 16.517C122.434 16.8783 122.534 17.3622 122.534 17.9688V23H121.361V21.9659H121.301C121.221 22.1316 121.089 22.3089 120.903 22.4979C120.718 22.6868 120.471 22.8475 120.162 22.9801C119.854 23.1127 119.478 23.179 119.034 23.179ZM119.213 22.125C119.677 22.125 120.068 22.0339 120.386 21.8516C120.708 21.6693 120.95 21.4339 121.112 21.1456C121.278 20.8572 121.361 20.554 121.361 20.2358V19.1619C121.311 19.2216 121.202 19.2763 121.032 19.326C120.867 19.3724 120.675 19.4138 120.456 19.4503C120.24 19.4834 120.03 19.5133 119.824 19.5398C119.622 19.563 119.458 19.5829 119.332 19.5994C119.027 19.6392 118.742 19.7038 118.477 19.7933C118.215 19.8795 118.003 20.0104 117.841 20.1861C117.682 20.3584 117.602 20.5937 117.602 20.892C117.602 21.2997 117.753 21.608 118.055 21.8168C118.359 22.0223 118.746 22.125 119.213 22.125ZM129.786 18.6449V19.7386H125.57V18.6449H129.786ZM125.849 15.3636V23H124.675V15.3636H125.849ZM130.681 15.3636V23H129.508V15.3636H130.681ZM137.418 23V16.4375H135.389C134.932 16.4375 134.572 16.5436 134.31 16.7557C134.049 16.9678 133.918 17.2595 133.918 17.6307C133.918 17.9953 134.035 18.282 134.271 18.4908C134.509 18.6996 134.836 18.804 135.25 18.804H137.716V19.8977H135.25C134.733 19.8977 134.287 19.8066 133.913 19.6243C133.538 19.442 133.25 19.1818 133.048 18.8438C132.845 18.5024 132.744 18.098 132.744 17.6307C132.744 17.16 132.85 16.7557 133.062 16.4176C133.275 16.0795 133.578 15.8194 133.972 15.6371C134.37 15.4548 134.842 15.3636 135.389 15.3636H138.531V23H137.418ZM132.327 23L134.494 19.2017H135.767L133.599 23H132.327ZM139.646 16.4574V15.3636H145.851V16.4574H143.345V23H142.172V16.4574H139.646ZM148.735 21.2699L152.414 15.3636H153.767V23H152.593V17.0938L148.934 23H147.562V15.3636H148.735V21.2699ZM159.117 23.1591C158.382 23.1591 157.747 22.9967 157.213 22.6719C156.683 22.3438 156.274 21.8864 155.985 21.2997C155.7 20.7098 155.558 20.0237 155.558 19.2415C155.558 18.4593 155.7 17.7699 155.985 17.1733C156.274 16.5734 156.675 16.1061 157.188 15.7713C157.705 15.4332 158.309 15.2642 158.998 15.2642C159.396 15.2642 159.789 15.3305 160.176 15.4631C160.564 15.5956 160.917 15.8111 161.235 16.1094C161.553 16.4044 161.807 16.7955 161.996 17.2827C162.185 17.7699 162.279 18.3698 162.279 19.0824V19.5795H156.393V18.5653H161.086C161.086 18.1345 161 17.75 160.828 17.4119C160.659 17.0739 160.417 16.8071 160.102 16.6115C159.79 16.416 159.422 16.3182 158.998 16.3182C158.531 16.3182 158.126 16.4342 157.785 16.6662C157.447 16.8949 157.187 17.1932 157.004 17.5611C156.822 17.929 156.731 18.3234 156.731 18.7443V19.4205C156.731 19.9972 156.83 20.486 157.029 20.8871C157.231 21.2848 157.512 21.5881 157.869 21.7969C158.227 22.0024 158.643 22.1051 159.117 22.1051C159.426 22.1051 159.704 22.062 159.953 21.9759C160.204 21.8864 160.422 21.7538 160.604 21.5781C160.786 21.3991 160.927 21.1771 161.026 20.9119L162.16 21.2301C162.041 21.6146 161.84 21.9527 161.558 22.2443C161.277 22.5327 160.929 22.758 160.514 22.9205C160.1 23.0795 159.634 23.1591 159.117 23.1591Z" fill="white"/>
</g>
<defs>
<filter id="filter0_d_11_13" x="0" y="3" width="45" height="40" filterUnits="userSpaceOnUse" color-interpolation-filters="sRGB">
<feFlood flood-opacity="0" result="BackgroundImageFix"/>
<feColorMatrix in="SourceAlpha" type="matrix" values="0 0 0 0 0 0 0 0 0 0 0 0 0 0 0 0 0 0 127 0" result="hardAlpha"/>
<feOffset dx="10" dy="5"/>
<feGaussianBlur stdDeviation="2.5"/>
<feComposite in2="hardAlpha" operator="out"/>
<feColorMatrix type="matrix" values="0 0 0 0 0 0 0 0 0 0 0 0 0 0 0 0 0 0 0.5 0"/>
<feBlend mode="normal" in2="BackgroundImageFix" result="effect1_dropShadow_11_13"/>
<feBlend mode="normal" in="SourceGraphic" in2="effect1_dropShadow_11_13" result="shape"/>
</filter>
<filter id="filter1_d_11_13" x="13.5" y="10" width="18" height="26" filterUnits="userSpaceOnUse" color-interpolation-filters="sRGB">
<feFlood flood-opacity="0" result="BackgroundImageFix"/>
<feColorMatrix in="SourceAlpha" type="matrix" values="0 0 0 0 0 0 0 0 0 0 0 0 0 0 0 0 0 0 127 0" result="hardAlpha"/>
<feOffset dx="10" dy="5"/>
<feGaussianBlur stdDeviation="2.5"/>
<feComposite in2="hardAlpha" operator="out"/>
<feColorMatrix type="matrix" values="0 0 0 0 0 0 0 0 0 0 0 0 0 0 0 0 0 0 0.5 0"/>
<feBlend mode="normal" in2="BackgroundImageFix" result="effect1_dropShadow_11_13"/>
<feBlend mode="normal" in="SourceGraphic" in2="effect1_dropShadow_11_13" result="shape"/>
</filter>
<filter id="filter2_d_11_13" x="7" y="16" width="31" height="13" filterUnits="userSpaceOnUse" color-interpolation-filters="sRGB">
<feFlood flood-opacity="0" result="BackgroundImageFix"/>
<feColorMatrix in="SourceAlpha" type="matrix" values="0 0 0 0 0 0 0 0 0 0 0 0 0 0 0 0 0 0 127 0" result="hardAlpha"/>
<feOffset dx="10" dy="5"/>
<feGaussianBlur stdDeviation="2.5"/>
<feComposite in2="hardAlpha" operator="out"/>
<feColorMatrix type="matrix" values="0 0 0 0 0 0 0 0 0 0 0 0 0 0 0 0 0 0 0.5 0"/>
<feBlend mode="normal" in2="BackgroundImageFix" result="effect1_dropShadow_11_13"/>
<feBlend mode="normal" in="SourceGraphic" in2="effect1_dropShadow_11_13" result="shape"/>
</filter>
<clipPath id="clip0_11_13">
<rect width="163" height="36" fill="white"/>
</clipPath>
</defs>
</svg>
