<svg width="260" height="54" viewBox="0 0 260 54" fill="none" xmlns="http://www.w3.org/2000/svg">
<g clip-path="url(#clip0_10_3)">
<g filter="url(#filter0_d_10_3)">
<circle cx="37" cy="27" r="25" fill="#212023"/>
<circle cx="37" cy="27" r="24.5" stroke="#8DB9FF"/>
</g>
<g filter="url(#filter1_d_10_3)">
<line x1="37.5" y1="40" x2="37.5" y2="15" stroke="white" stroke-width="3"/>
</g>
<g filter="url(#filter2_d_10_3)">
<line x1="25" y1="27.5" x2="50" y2="27.5" stroke="white" stroke-width="3"/>
</g>
<path d="M70.5114 38.5227V33.4375H71.4489C71.7708 33.1439 72.0739 32.7296 72.358 32.1946C72.6468 31.6548 72.8906 30.9351 73.0895 30.0355C73.2931 29.1312 73.428 27.983 73.4943 26.5909L73.8068 20.4545H82.4432V33.4375H84.1193V38.4943H82.4432V35H72.1875V38.5227H70.5114ZM73.5511 33.4375H80.767V22.017H75.3977L75.1705 26.5909C75.1136 27.6515 75.0142 28.6127 74.8722 29.4744C74.7301 30.3314 74.5478 31.0914 74.3253 31.7543C74.1027 32.4124 73.8447 32.9735 73.5511 33.4375ZM90.9854 35.2273C90.0006 35.2273 89.1365 34.9929 88.3931 34.5241C87.6545 34.0554 87.0768 33.3996 86.6602 32.5568C86.2482 31.714 86.0423 30.7292 86.0423 29.6023C86.0423 28.4659 86.2482 27.474 86.6602 26.6264C87.0768 25.7789 87.6545 25.1207 88.3931 24.652C89.1365 24.1832 90.0006 23.9489 90.9854 23.9489C91.9703 23.9489 92.832 24.1832 93.5707 24.652C94.314 25.1207 94.8917 25.7789 95.3036 26.6264C95.7203 27.474 95.9286 28.4659 95.9286 29.6023C95.9286 30.7292 95.7203 31.714 95.3036 32.5568C94.8917 33.3996 94.314 34.0554 93.5707 34.5241C92.832 34.9929 91.9703 35.2273 90.9854 35.2273ZM90.9854 33.7216C91.7335 33.7216 92.3491 33.5298 92.832 33.1463C93.315 32.7628 93.6725 32.2585 93.9045 31.6335C94.1365 31.0085 94.2525 30.3314 94.2525 29.6023C94.2525 28.8731 94.1365 28.1937 93.9045 27.5639C93.6725 26.9342 93.315 26.4252 92.832 26.0369C92.3491 25.6487 91.7335 25.4545 90.9854 25.4545C90.2373 25.4545 89.6218 25.6487 89.1388 26.0369C88.6559 26.4252 88.2984 26.9342 88.0664 27.5639C87.8344 28.1937 87.7184 28.8731 87.7184 29.6023C87.7184 30.3314 87.8344 31.0085 88.0664 31.6335C88.2984 32.2585 88.6559 32.7628 89.1388 33.1463C89.6218 33.5298 90.2373 33.7216 90.9854 33.7216ZM106.584 20L107.436 21.0227C107.105 21.3447 106.721 21.5696 106.286 21.6974C105.85 21.8253 105.357 21.9034 104.808 21.9318C104.259 21.9602 103.648 21.9886 102.976 22.017C102.218 22.0455 101.591 22.2301 101.094 22.571C100.597 22.9119 100.213 23.4044 99.9432 24.0483C99.6733 24.6922 99.5005 25.483 99.4247 26.4205H99.5668C99.9361 25.7386 100.447 25.2367 101.101 24.9148C101.754 24.5928 102.455 24.4318 103.203 24.4318C104.055 24.4318 104.822 24.6307 105.504 25.0284C106.186 25.4261 106.726 26.0156 107.124 26.7969C107.521 27.5781 107.72 28.5417 107.72 29.6875C107.72 30.8286 107.517 31.8134 107.109 32.642C106.707 33.4706 106.141 34.1098 105.412 34.5597C104.688 35.0047 103.838 35.2273 102.862 35.2273C101.887 35.2273 101.032 34.9976 100.298 34.5384C99.5644 34.0743 98.9938 33.3878 98.5866 32.4787C98.1795 31.5649 97.9759 30.4356 97.9759 29.0909V27.9261C97.9759 25.4972 98.3878 23.6553 99.2116 22.4006C100.04 21.1458 101.286 20.4972 102.947 20.4545C103.535 20.4356 104.058 20.4309 104.517 20.4403C104.976 20.4498 105.376 20.4285 105.717 20.3764C106.058 20.3243 106.347 20.1989 106.584 20ZM102.862 33.7216C103.52 33.7216 104.086 33.5559 104.56 33.2244C105.038 32.893 105.405 32.4266 105.661 31.8253C105.916 31.2192 106.044 30.5066 106.044 29.6875C106.044 28.892 105.914 28.215 105.653 27.6562C105.398 27.0975 105.031 26.6714 104.553 26.3778C104.074 26.0843 103.501 25.9375 102.834 25.9375C102.346 25.9375 101.908 26.0204 101.52 26.1861C101.132 26.3518 100.8 26.5956 100.526 26.9176C100.251 27.2396 100.038 27.6326 99.8864 28.0966C99.7396 28.5606 99.6615 29.0909 99.652 29.6875C99.652 30.9091 99.9384 31.8868 100.511 32.6207C101.084 33.3546 101.868 33.7216 102.862 33.7216ZM113.494 35.2557C112.803 35.2557 112.176 35.1255 111.612 34.8651C111.049 34.5999 110.601 34.2188 110.27 33.7216C109.938 33.2197 109.773 32.6136 109.773 31.9034C109.773 31.2784 109.896 30.7718 110.142 30.3835C110.388 29.9905 110.717 29.6828 111.129 29.4602C111.541 29.2377 111.996 29.072 112.493 28.9631C112.995 28.8494 113.499 28.7595 114.006 28.6932C114.669 28.608 115.206 28.544 115.618 28.5014C116.035 28.4541 116.338 28.3759 116.527 28.267C116.721 28.1581 116.818 27.9687 116.818 27.6989V27.642C116.818 26.9413 116.626 26.3968 116.243 26.0085C115.864 25.6203 115.289 25.4261 114.517 25.4261C113.717 25.4261 113.089 25.6013 112.635 25.9517C112.18 26.3021 111.861 26.6761 111.676 27.0739L110.085 26.5057C110.369 25.8428 110.748 25.3267 111.222 24.9574C111.7 24.5833 112.221 24.3229 112.784 24.1761C113.352 24.0246 113.911 23.9489 114.46 23.9489C114.811 23.9489 115.213 23.9915 115.668 24.0767C116.127 24.1572 116.57 24.3253 116.996 24.581C117.427 24.8366 117.784 25.2225 118.068 25.7386C118.352 26.2547 118.494 26.946 118.494 27.8125V35H116.818V33.5227H116.733C116.619 33.7595 116.43 34.0128 116.165 34.2827C115.9 34.5526 115.547 34.7822 115.107 34.9716C114.666 35.161 114.129 35.2557 113.494 35.2557ZM113.75 33.75C114.413 33.75 114.972 33.6198 115.426 33.3594C115.885 33.099 116.231 32.7628 116.463 32.3509C116.7 31.9389 116.818 31.5057 116.818 31.0511V29.517C116.747 29.6023 116.591 29.6804 116.349 29.7514C116.113 29.8177 115.838 29.8769 115.526 29.929C115.218 29.9763 114.917 30.0189 114.624 30.0568C114.335 30.09 114.1 30.1184 113.92 30.142C113.485 30.1989 113.078 30.2912 112.699 30.419C112.325 30.5421 112.022 30.7292 111.79 30.9801C111.563 31.2263 111.449 31.5625 111.449 31.9886C111.449 32.571 111.664 33.0114 112.095 33.3097C112.531 33.6032 113.082 33.75 113.75 33.75ZM121.554 35V24.0909H126.014C127.188 24.0909 128.121 24.3561 128.812 24.8864C129.503 25.4167 129.849 26.1174 129.849 26.9886C129.849 27.6515 129.653 28.1652 129.26 28.5298C128.867 28.8897 128.362 29.1335 127.747 29.2614C128.149 29.3182 128.54 29.4602 128.919 29.6875C129.302 29.9148 129.619 30.2273 129.87 30.625C130.121 31.018 130.247 31.5009 130.247 32.0739C130.247 32.6326 130.105 33.1321 129.821 33.5724C129.537 34.0128 129.129 34.3608 128.599 34.6165C128.069 34.8722 127.434 35 126.696 35H121.554ZM123.145 33.4659H126.696C127.273 33.4659 127.725 33.3286 128.052 33.054C128.379 32.7794 128.542 32.4053 128.542 31.9318C128.542 31.3684 128.379 30.9257 128.052 30.6037C127.725 30.277 127.273 30.1136 126.696 30.1136H123.145V33.4659ZM123.145 28.6648H126.014C126.464 28.6648 126.85 28.6032 127.172 28.4801C127.493 28.3523 127.74 28.1723 127.91 27.9403C128.085 27.7036 128.173 27.4242 128.173 27.1023C128.173 26.643 127.981 26.2831 127.598 26.0227C127.214 25.7576 126.686 25.625 126.014 25.625H123.145V28.6648ZM134.46 32.5284L139.716 24.0909H141.648V35H139.972V26.5625L134.744 35H132.784V24.0909H134.46V32.5284ZM143.233 25.6534V24.0909H152.097V25.6534H148.517V35H146.841V25.6534H143.233ZM155.991 28.0398H159.116C160.394 28.0398 161.372 28.3641 162.049 29.0128C162.726 29.6615 163.065 30.483 163.065 31.4773C163.065 32.1307 162.913 32.7249 162.61 33.2599C162.307 33.7902 161.862 34.214 161.275 34.5312C160.688 34.8438 159.968 35 159.116 35H154.542V24.0909H156.218V33.4375H159.116C159.779 33.4375 160.323 33.2623 160.749 32.9119C161.175 32.5616 161.388 32.1117 161.388 31.5625C161.388 30.9848 161.175 30.5137 160.749 30.1491C160.323 29.7846 159.779 29.6023 159.116 29.6023H155.991V28.0398ZM170.076 38.125V33.4375H170.985C171.208 33.2055 171.4 32.9545 171.561 32.6847C171.722 32.4148 171.861 32.0952 171.98 31.7259C172.103 31.3518 172.207 30.8973 172.292 30.3622C172.377 29.8224 172.453 29.1714 172.52 28.4091L172.889 24.0909H179.821V33.4375H181.497V38.125H179.821V35H171.752V38.125H170.076ZM172.889 33.4375H178.145V25.6534H174.451L174.167 28.4091C174.049 29.5502 173.902 30.5469 173.727 31.3991C173.552 32.2514 173.272 32.9309 172.889 33.4375ZM188.295 35.2273C187.244 35.2273 186.338 34.9953 185.575 34.5312C184.818 34.0625 184.233 33.4091 183.821 32.571C183.414 31.7282 183.21 30.7481 183.21 29.6307C183.21 28.5133 183.414 27.5284 183.821 26.6761C184.233 25.8191 184.806 25.1515 185.54 24.6733C186.278 24.1903 187.14 23.9489 188.125 23.9489C188.693 23.9489 189.254 24.0436 189.808 24.233C190.362 24.4223 190.866 24.7301 191.321 25.1562C191.776 25.5777 192.138 26.1364 192.408 26.8324C192.678 27.5284 192.812 28.3854 192.812 29.4034V30.1136H184.403V28.6648H191.108C191.108 28.0492 190.985 27.5 190.739 27.017C190.497 26.5341 190.152 26.1529 189.702 25.8736C189.257 25.5942 188.731 25.4545 188.125 25.4545C187.457 25.4545 186.88 25.6203 186.392 25.9517C185.909 26.2784 185.537 26.7045 185.277 27.2301C185.017 27.7557 184.886 28.3191 184.886 28.9205V29.8864C184.886 30.7102 185.028 31.4086 185.312 31.9815C185.601 32.5497 186.001 32.983 186.513 33.2812C187.024 33.5748 187.618 33.7216 188.295 33.7216C188.736 33.7216 189.134 33.66 189.489 33.5369C189.848 33.4091 190.159 33.2197 190.419 32.9688C190.679 32.7131 190.881 32.3958 191.023 32.017L192.642 32.4716C192.472 33.0208 192.185 33.5038 191.783 33.9205C191.38 34.3324 190.883 34.6544 190.291 34.8864C189.699 35.1136 189.034 35.2273 188.295 35.2273ZM202.663 28.7784V30.3409H196.641V28.7784H202.663ZM197.038 24.0909V35H195.362V24.0909H197.038ZM203.942 24.0909V35H202.266V24.0909H203.942ZM208.452 28.0398H211.577C212.855 28.0398 213.833 28.3641 214.51 29.0128C215.187 29.6615 215.526 30.483 215.526 31.4773C215.526 32.1307 215.374 32.7249 215.071 33.2599C214.768 33.7902 214.323 34.214 213.736 34.5312C213.149 34.8438 212.429 35 211.577 35H207.003V24.0909H208.679V33.4375H211.577C212.24 33.4375 212.784 33.2623 213.21 32.9119C213.636 32.5616 213.849 32.1117 213.849 31.5625C213.849 30.9848 213.636 30.5137 213.21 30.1491C212.784 29.7846 212.24 29.6023 211.577 29.6023H208.452V28.0398Z" fill="white"/>
</g>
<defs>
<filter id="filter0_d_10_3" x="12" y="2" width="65" height="60" filterUnits="userSpaceOnUse" color-interpolation-filters="sRGB">
<feFlood flood-opacity="0" result="BackgroundImageFix"/>
<feColorMatrix in="SourceAlpha" type="matrix" values="0 0 0 0 0 0 0 0 0 0 0 0 0 0 0 0 0 0 127 0" result="hardAlpha"/>
<feOffset dx="10" dy="5"/>
<feGaussianBlur stdDeviation="2.5"/>
<feComposite in2="hardAlpha" operator="out"/>
<feColorMatrix type="matrix" values="0 0 0 0 0 0 0 0 0 0 0 0 0 0 0 0 0 0 0.5 0"/>
<feBlend mode="normal" in2="BackgroundImageFix" result="effect1_dropShadow_10_3"/>
<feBlend mode="normal" in="SourceGraphic" in2="effect1_dropShadow_10_3" result="shape"/>
</filter>
<filter id="filter1_d_10_3" x="36" y="15" width="18" height="85" filterUnits="userSpaceOnUse" color-interpolation-filters="sRGB">
<feFlood flood-opacity="0" result="BackgroundImageFix"/>
<feColorMatrix in="SourceAlpha" type="matrix" values="0 0 0 0 0 0 0 0 0 0 0 0 0 0 0 0 0 0 127 0" result="hardAlpha"/>
<feOffset dx="10" dy="55"/>
<feGaussianBlur stdDeviation="2.5"/>
<feComposite in2="hardAlpha" operator="out"/>
<feColorMatrix type="matrix" values="0 0 0 0 0 0 0 0 0 0 0 0 0 0 0 0 0 0 0.5 0"/>
<feBlend mode="normal" in2="BackgroundImageFix" result="effect1_dropShadow_10_3"/>
<feBlend mode="normal" in="SourceGraphic" in2="effect1_dropShadow_10_3" result="shape"/>
</filter>
<filter id="filter2_d_10_3" x="25" y="26" width="40" height="63" filterUnits="userSpaceOnUse" color-interpolation-filters="sRGB">
<feFlood flood-opacity="0" result="BackgroundImageFix"/>
<feColorMatrix in="SourceAlpha" type="matrix" values="0 0 0 0 0 0 0 0 0 0 0 0 0 0 0 0 0 0 127 0" result="hardAlpha"/>
<feOffset dx="10" dy="55"/>
<feGaussianBlur stdDeviation="2.5"/>
<feComposite in2="hardAlpha" operator="out"/>
<feColorMatrix type="matrix" values="0 0 0 0 0 0 0 0 0 0 0 0 0 0 0 0 0 0 0.5 0"/>
<feBlend mode="normal" in2="BackgroundImageFix" result="effect1_dropShadow_10_3"/>
<feBlend mode="normal" in="SourceGraphic" in2="effect1_dropShadow_10_3" result="shape"/>
</filter>
<clipPath id="clip0_10_3">
<rect width="260" height="54" fill="white"/>
</clipPath>
</defs>
</svg>
